<?xml version="1.0" encoding="UTF-8"?>
<svg version="1.1" xmlns="http://www.w3.org/2000/svg" width="1024" height="1024">
<path d="M0 0 C7.08407758 -0.07587748 14.16805094 -0.12852671 21.25244141 -0.16479492 C23.66393957 -0.17990945 26.07541014 -0.20040153 28.48681641 -0.22631836 C31.94700928 -0.26258425 35.40683971 -0.27969956 38.8671875 -0.29296875 C39.95055389 -0.30845261 41.03392029 -0.32393646 42.15011597 -0.33988953 C43.1510025 -0.34011612 44.15188904 -0.34034271 45.18310547 -0.34057617 C46.06690887 -0.34723801 46.95071228 -0.35389984 47.86129761 -0.36076355 C48.5670694 -0.24171158 49.27284119 -0.12265961 50 0 C52.38967787 3.58451681 52.28935939 5.3384407 52.37890625 9.6015625 C52.41306641 10.89578125 52.44722656 12.19 52.48242188 13.5234375 C52.50977192 14.89061201 52.53645655 16.25779998 52.5625 17.625 C52.62022396 20.30490594 52.68571067 22.9843772 52.75390625 25.6640625 C52.77783447 26.85467285 52.8017627 28.0452832 52.82641602 29.27197266 C52.69281614 31.91307527 52.69281614 31.91307527 54 33 C54.28221172 35.58022142 54.44820197 38.16030185 54.62109375 40.75 C54.74613281 41.4925 54.87117188 42.235 55 43 C55.99 43.495 55.99 43.495 57 44 C57.65429688 45.84179688 57.65429688 45.84179688 58.21875 48.21875 C58.42886719 49.06824219 58.63898438 49.91773438 58.85546875 50.79296875 C59.28515625 52.59765625 59.71484375 54.40234375 60.14453125 56.20703125 C60.35464844 57.05652344 60.56476563 57.90601563 60.78125 58.78125 C60.96751953 59.56564453 61.15378906 60.35003906 61.34570312 61.15820312 C61.83338603 63.20549204 61.83338603 63.20549204 64 64 C64 65.98 64 67.96 64 70 C64.99 70 65.98 70 67 70 C68.61809497 73.60393879 70.07215518 77.0483076 71.0625 80.875 C71.371875 81.90625 71.68125 82.9375 72 84 C72.66 84.33 73.32 84.66 74 85 C73.67 85.66 73.34 86.32 73 87 C73.99 87 74.98 87 76 87 C76.99 90.465 76.99 90.465 78 94 C78.66 94 79.32 94 80 94 C82.29648649 96.5614657 83 97.47967572 83 101 C84.485 101.495 84.485 101.495 86 102 C87.1875 104.0625 87.1875 104.0625 88 106 C88.66 106 89.32 106 90 106 C90.66 107.65 91.32 109.3 92 111 C92.66 111 93.32 111 94 111 C94 111.66 94 112.32 94 113 C94.66 113 95.32 113 96 113 C96.33 113.66 96.66 114.32 97 115 C98.485 115.495 98.485 115.495 100 116 C100.69937532 117.31647119 101.36729133 118.65022151 102 120 C102.66 120.33 103.32 120.66 104 121 C104 121.66 104 122.32 104 123 C105.32 123 106.64 123 108 123 C108 123.66 108 124.32 108 125 C108.66 125 109.32 125 110 125 C110 125.66 110 126.32 110 127 C111.485 127.495 111.485 127.495 113 128 C113 128.66 113 129.32 113 130 C113.86625 130.1546875 113.86625 130.1546875 114.75 130.3125 C117.3300787 131.10085738 118.85452276 132.39089207 121 134 C123.14733927 134.70514846 123.14733927 134.70514846 125 135 C125 135.66 125 136.32 125 137 C125.66 137 126.32 137 127 137 C127.33 137.66 127.66 138.32 128 139 C130.02463255 139.65213292 130.02463255 139.65213292 132 140 C132 140.66 132 141.32 132 142 C133.98 142 135.96 142 138 142 C138 142.66 138 143.32 138 144 C139.093125 144.268125 140.18625 144.53625 141.3125 144.8125 C144.90358295 145.96895044 145.57852257 146.47324094 148 149 C152.86986031 151.08708299 157.7750784 151.5587844 163 152 C163 152.66 163 153.32 163 154 C163.66386719 153.97679687 164.32773437 153.95359375 165.01171875 153.9296875 C169.8859998 153.83006716 173.52761525 153.88804054 178 156 C179.9924325 156.37593066 181.9918674 156.71979545 184 157 C184 157.66 184 158.32 184 159 C190.29909196 158.90745612 196.59780882 158.80011542 202.89648438 158.68261719 C205.03802816 158.64439847 207.17963457 158.60953332 209.32128906 158.578125 C212.40452417 158.53232021 215.48733071 158.47435083 218.5703125 158.4140625 C219.52366486 158.40251129 220.47701721 158.39096008 221.45925903 158.37905884 C226.38678346 158.27032981 230.35160208 157.8056651 235 156 C237.875 155.875 237.875 155.875 240 156 C240 155.34 240 154.68 240 154 C243.63 154 247.26 154 251 154 C251 153.34 251 152.68 251 152 C251.56847656 151.95101562 252.13695312 151.90203125 252.72265625 151.8515625 C257.71081129 151.36856919 262.22599578 150.52361837 267 149 C267 148.34 267 147.68 267 147 C269.64 145.68 272.28 144.36 275 143 C275 142.67 275 142.34 275 142 C277.31 142 279.62 142 282 142 C282 141.34 282 140.68 282 140 C282.99 139.67 283.98 139.34 285 139 C285.45375 138.319375 285.9075 137.63875 286.375 136.9375 C288 135 288 135 290.6875 134.75 C291.450625 134.8325 292.21375 134.915 293 135 C293 134.34 293 133.68 293 133 C293.99 132.67 294.98 132.34 296 132 C296.33 131.34 296.66 130.68 297 130 C298.32 130 299.64 130 301 130 C301.268125 129.401875 301.53625 128.80375 301.8125 128.1875 C303.02300334 125.95762543 303.991379 124.54509308 306 123 C307.32 123 308.64 123 310 123 C310 122.34 310 121.68 310 121 C310.66 121 311.32 121 312 121 C312 120.01 312 119.02 312 118 C312.66 118 313.32 118 314 118 C314 117.34 314 116.68 314 116 C317 114 317 114 320 113 C320 112.34 320 111.68 320 111 C320.66 111 321.32 111 322 111 C322 110.01 322 109.02 322 108 C322.66 108 323.32 108 324 108 C324 107.34 324 106.68 324 106 C324.66 106 325.32 106 326 106 C326 105.34 326 104.68 326 104 C326.97980406 102.98020394 327.98339613 101.98311574 329 101 C330.32009994 99.1706627 331.56784326 97.30446015 332.81640625 95.42578125 C333.20699219 94.95527344 333.59757812 94.48476563 334 94 C334.66 94 335.32 94 336 94 C336.33 92.35 336.66 90.7 337 89 C337.66 89 338.32 89 339 89 C339 87.68 339 86.36 339 85 C339.66 85 340.32 85 341 85 C341 84.01 341 83.02 341 82 C341.66 82 342.32 82 343 82 C343.33 80.35 343.66 78.7 344 77 C344.66 77 345.32 77 346 77 C346.33 75.35 346.66 73.7 347 72 C347.66 72 348.32 72 349 72 C349.103125 71.030625 349.20625 70.06125 349.3125 69.0625 C349.95567355 64.56947334 351.14006437 60.14703351 353 56 C353.66 55.67 354.32 55.34 355 55 C356.99954622 49.3803603 357.31973137 43.28871445 357.65625 37.3828125 C358 35 358 35 360 32 C361.50232408 24.85177093 361.30107234 17.21030042 361.51757812 9.93359375 C361.55173828 9.08152344 361.58589844 8.22945313 361.62109375 7.3515625 C361.6461499 6.58666504 361.67120605 5.82176758 361.69702148 5.03369141 C362 3 362 3 364 0 C365.98684692 -0.36076355 365.98684692 -0.36076355 368.44970703 -0.34057617 C369.37051056 -0.34034958 370.29131409 -0.34012299 371.24002075 -0.33988953 C372.73382767 -0.31666374 372.73382767 -0.31666374 374.2578125 -0.29296875 C375.27600067 -0.28872391 376.29418884 -0.28447906 377.3432312 -0.28010559 C380.60408673 -0.26327579 383.86433041 -0.22561546 387.125 -0.1875 C389.33202234 -0.17245874 391.53905434 -0.15876937 393.74609375 -0.14648438 C399.16427223 -0.1133583 404.58209242 -0.06311653 410 0 C410.07640051 7.09831811 410.12874659 14.19652918 410.16479492 21.29516602 C410.17983145 23.7073157 410.20026599 26.11943828 410.22631836 28.53149414 C410.26292732 32.00934564 410.27977829 35.48683394 410.29296875 38.96484375 C410.30845261 40.03395493 410.32393646 41.1030661 410.33988953 42.20457458 C410.34161483 49.97382719 409.36347807 56.45478289 405 63 C404.60612212 65.32387947 404.26513915 67.65793749 404 70 C403.34 70 402.68 70 402 70 C402 71.98 402 73.96 402 76 C400.515 76.495 400.515 76.495 399 77 C399.061875 78.6396875 399.061875 78.6396875 399.125 80.3125 C399 84 399 84 397 87 C396.34 87 395.68 87 395 87 C394.67 89.31 394.34 91.62 394 94 C393.34 94 392.68 94 392 94 C391.9175 94.680625 391.835 95.36125 391.75 96.0625 C390.77667472 99.8746907 389.04192545 102.64070329 387 106 C386.34 106 385.68 106 385 106 C384.67 107.65 384.34 109.3 384 111 C383.34 111 382.68 111 382 111 C382 112.65 382 114.3 382 116 C381.34 116 380.68 116 380 116 C380 116.66 380 117.32 380 118 C379.34 118 378.68 118 378 118 C377.731875 118.7425 377.46375 119.485 377.1875 120.25 C376.03622572 122.91610887 374.76460569 124.71538974 373 127 C372.24009766 128.05960938 372.24009766 128.05960938 371.46484375 129.140625 C370.96082031 129.83671875 370.45679688 130.5328125 369.9375 131.25 C369.43089844 131.95640625 368.92429687 132.6628125 368.40234375 133.390625 C367.70818359 134.18726563 367.70818359 134.18726563 367 135 C366.34 135 365.68 135 365 135 C365 135.66 365 136.32 365 137 C363 139 363 139 361 140 C360.27840576 141.64363134 359.60648579 143.31050386 359 145 C358.01 145 357.02 145 356 145 C356 145.66 356 146.32 356 147 C354.625 148.625 354.625 148.625 353 150 C352.34 150 351.68 150 351 150 C350.731875 150.598125 350.46375 151.19625 350.1875 151.8125 C348.99012525 154.01819033 347.95521016 155.43583187 346 157 C345.01 157 344.02 157 343 157 C343 157.66 343 158.32 343 159 C342.34 159 341.68 159 341 159 C341 159.99 341 160.98 341 162 C340.34 162 339.68 162 339 162 C339 162.66 339 163.32 339 164 C336.69 164.99 334.38 165.98 332 167 C332 167.66 332 168.32 332 169 C331.01 169 330.02 169 329 169 C328.34 170.65 327.68 172.3 327 174 C325.35 174 323.7 174 322 174 C322 174.66 322 175.32 322 176 C320.865625 176.45375 319.73125 176.9075 318.5625 177.375 C314.95278308 178.57095806 314.95278308 178.57095806 314 181 C313.34 181 312.68 181 312 181 C312 181.66 312 182.32 312 183 C311.360625 183.12375 310.72125 183.2475 310.0625 183.375 C309.381875 183.58125 308.70125 183.7875 308 184 C307.67 184.66 307.34 185.32 307 186 C305.02 186 303.04 186 301 186 C301 186.66 301 187.32 301 188 C300.401875 188.0825 299.80375 188.165 299.1875 188.25 C296.84285453 188.79788024 296.84285453 188.79788024 295.77734375 190.9453125 C293.28666099 193.82465126 291.07006847 193.94497631 287.375 194.625 C285.23842074 195.02590339 283.10861789 195.47139331 281 196 C280.67 196.66 280.34 197.32 280 198 C277.69 198 275.38 198 273 198 C272.67 198.99 272.34 199.98 272 201 C271.01 201 270.02 201 269 201 C269 201.66 269 202.32 269 203 C266.03 203.33 263.06 203.66 260 204 C260 204.33 260 204.66 260 205 C255.38 205 250.76 205 246 205 C246 205.66 246 206.32 246 207 C241.71 207.33 237.42 207.66 233 208 C233.00222061 209.08772202 233.00444122 210.17544403 233.00672913 211.29612732 C233.02695978 221.52353511 233.04197177 231.75093886 233.05181217 241.97836208 C233.05704119 247.23696664 233.06413918 252.4955551 233.07543945 257.75415039 C233.08626766 262.82453127 233.09227669 267.89489662 233.09487724 272.96528816 C233.09673161 274.90426948 233.10035245 276.84324991 233.10573006 278.78222466 C233.1129396 281.4882176 233.11399098 284.19414556 233.11352539 286.90014648 C233.11712067 287.71006546 233.12071594 288.51998444 233.12442017 289.35444641 C233.11405216 294.88594784 233.11405216 294.88594784 232 296 C233.23805893 296.01030746 234.47611786 296.02061493 235.75169373 296.03123474 C247.39190429 296.12878746 259.03205923 296.23150384 270.67217922 296.33933926 C276.65716605 296.39461717 282.64215772 296.44804481 288.62719727 296.49731445 C294.39787773 296.54488636 300.16849668 296.59722629 305.93910408 296.65294075 C308.14601176 296.67339692 310.35293634 296.69210447 312.55987358 296.70907402 C315.63950616 296.73304608 318.71902126 296.7631101 321.79858398 296.79467773 C322.72071182 296.8004332 323.64283966 296.80618866 324.59291077 296.81211853 C330.88594784 296.88594784 330.88594784 296.88594784 332 298 C332.10320628 299.39065257 332.13849362 300.78644764 332.14526367 302.1809082 C332.15164352 303.06885574 332.15802338 303.95680328 332.16459656 304.87165833 C332.16626579 306.32157417 332.16626579 306.32157417 332.16796875 307.80078125 C332.17129715 308.78870163 332.17462555 309.77662201 332.17805481 310.79447937 C332.18312935 312.89024387 332.18546297 314.98601648 332.18530273 317.08178711 C332.1874836 320.28838476 332.20561827 323.49463543 332.22460938 326.70117188 C332.2275443 328.73437382 332.22952843 330.7675774 332.23046875 332.80078125 C332.23765427 333.76131912 332.24483978 334.72185699 332.25224304 335.71150208 C332.24916641 336.6089061 332.24608978 337.50631012 332.24291992 338.4309082 C332.24434494 339.21842972 332.24576996 340.00595123 332.24723816 340.81733704 C332 343 332 343 330 347 C298.32 347 266.64 347 234 347 C232.35226099 350.29547803 232.87104275 353.95907164 232.88647461 357.58056641 C232.88625557 358.91236687 232.88625557 358.91236687 232.8860321 360.27107239 C232.88673045 363.21459369 232.89451919 366.15805221 232.90234375 369.1015625 C232.90420821 371.13894618 232.90563198 373.17633031 232.90663147 375.2137146 C232.91045445 380.58297966 232.92028289 385.95221777 232.93133545 391.32147217 C232.9433501 397.76001428 232.94795285 404.19856538 232.95378876 410.63711548 C232.96349474 420.4247624 232.98265285 430.21235019 233 440 C216.17 440 199.34 440 182 440 C181.67 408.98 181.34 377.96 181 346 C180.67 346.33 180.34 346.66 180 347 C177.01701786 347.0952822 174.05723655 347.12552175 171.07397461 347.11352539 C170.13748581 347.11367142 169.20099701 347.11381744 168.23612976 347.1139679 C165.12484461 347.11326837 162.01361851 347.10547415 158.90234375 347.09765625 C156.75142957 347.09579221 154.60051497 347.09436824 152.44960022 347.09336853 C146.77618242 347.08954225 141.10279005 347.07971102 135.42938232 347.06866455 C129.64498234 347.0584528 123.86057827 347.05387142 118.07617188 347.04882812 C106.71743672 347.03808885 95.35872047 347.02101111 84 347 C76.54494951 332.08989902 83 313.66999967 83 297 C115.67 297 148.34 297 182 297 C182 267.3 182 237.6 182 207 C177.38 207 172.76 207 168 207 C167.67 206.67 167.34 206.34 167 206 C164.81707226 205.76518307 162.62796826 205.58636677 160.4375 205.4375 C159.23996094 205.35371094 158.04242188 205.26992188 156.80859375 205.18359375 C155.88175781 205.12300781 154.95492187 205.06242188 154 205 C154 204.34 154 203.68 154 203 C152.80375 203.061875 151.6075 203.12375 150.375 203.1875 C146.26502405 203.20943937 143.5521739 202.13130434 140 200 C140 199.34 140 198.68 140 198 C137.69 198 135.38 198 133 198 C132.67 197.34 132.34 196.68 132 196 C129.19521805 195.08514427 129.19521805 195.08514427 125.9375 194.375 C124.83277344 194.11460937 123.72804688 193.85421875 122.58984375 193.5859375 C121.73519531 193.39257812 120.88054687 193.19921875 120 193 C120 192.34 120 191.68 120 191 C119.01 190.67 118.02 190.34 117 190 C117 189.67 117 189.34 117 189 C115.35 188.67 113.7 188.34 112 188 C112 187.34 112 186.68 112 186 C110.35 186 108.7 186 107 186 C106.67 185.34 106.34 184.68 106 184 C105.175 183.690625 104.35 183.38125 103.5 183.0625 C102.675 182.711875 101.85 182.36125 101 182 C100.67 181.01 100.34 180.02 100 179 C97.78566059 177.91257306 97.78566059 177.91257306 95 177 C88.33592989 174.62804284 88.33592989 174.62804284 86.5625 171.3125 C86.376875 170.549375 86.19125 169.78625 86 169 C84.68 169 83.36 169 82 169 C79.875 167.0625 79.875 167.0625 78 165 C77.34 164.67 76.68 164.34 76 164 C76 163.34 76 162.68 76 162 C75.01 162 74.02 162 73 162 C71.97971135 160.68212715 70.98028616 159.34789347 70 158 C69.01 157.67 68.02 157.34 67 157 C65.17578125 155.22265625 65.17578125 155.22265625 63.3125 153.0625 C62.68988281 152.35222656 62.06726563 151.64195312 61.42578125 150.91015625 C60 149 60 149 60 147 C59.01 147 58.02 147 57 147 C57 146.34 57 145.68 57 145 C56.34 144.67 55.68 144.34 55 144 C53.92329184 142.88702965 52.88519147 141.73617656 51.875 140.5625 C51.33617187 139.94503906 50.79734375 139.32757813 50.2421875 138.69140625 C49 137 49 137 49 135 C48.34 135 47.68 135 47 135 C47 134.34 47 133.68 47 133 C46.34 133 45.68 133 45 133 C45 132.01 45 131.02 45 130 C44.34 130 43.68 130 43 130 C43 129.34 43 128.68 43 128 C42.34 128 41.68 128 41 128 C38 123.61538462 38 123.61538462 38 121 C37.34 121 36.68 121 36 121 C35.67 119.35 35.34 117.7 35 116 C34.01 116 33.02 116 32 116 C30.5393715 113.35261084 30 112.10551666 30 109 C29.34 109 28.68 109 28 109 C27.67 107.35 27.34 105.7 27 104 C26.34 104 25.68 104 25 104 C25 102.35 25 100.7 25 99 C24.34 99 23.68 99 23 99 C21 96 21 96 21 92 C19.515 91.505 19.515 91.505 18 91 C18 88.69 18 86.38 18 84 C17.34 84 16.68 84 16 84 C15.505 81.03 15.505 81.03 15 78 C14.34 78 13.68 78 13 78 C9.60278225 71.93353973 8 64.90684607 8 58 C7.34 58 6.68 58 6 58 C5.87882812 57.34773438 5.75765625 56.69546875 5.6328125 56.0234375 C4.71056011 51.21353658 3.69832723 46.60974535 2 42 C1.67 42 1.34 42 1 42 C-0.13702786 37.47942904 -0.12814634 33.04660217 -0.09765625 28.41796875 C-0.09553383 27.19670036 -0.09553383 27.19670036 -0.09336853 25.95075989 C-0.08779317 23.36296844 -0.07524524 20.77526508 -0.0625 18.1875 C-0.05748181 16.42773563 -0.05291946 14.66796989 -0.04882812 12.90820312 C-0.03783181 8.60543506 -0.02058421 4.30273244 0 0 Z " fill="#813291" transform="translate(307,354)"/>
<path d="M0 0 C4.66734708 0.85726783 7.75261876 3.25261876 11.0625 6.5625 C12.68300694 17.68344818 12.20246175 29.23838689 12.18275452 40.45005798 C12.18319289 42.31468216 12.18407155 44.17930627 12.18534851 46.04393005 C12.18757647 51.13863947 12.18359865 56.23332761 12.17857273 61.32803433 C12.17418634 66.91737952 12.17566864 72.50672384 12.17639065 78.09607029 C12.17692096 88.93155207 12.17231673 99.76702551 12.16588932 110.60250515 C12.1586737 123.14357358 12.15789371 135.68463705 12.15710449 148.22570801 C12.15185965 181.31713999 12.13789847 214.40857012 12.125 247.5 C12.104375 321.440625 12.08375 395.38125 12.0625 471.5625 C307.0825 471.0675 307.0825 471.0675 608.0625 470.5625 C607.86444352 319.5360885 607.86444352 319.5360885 607.61206055 168.50976562 C607.58947754 139.34667969 607.58947754 139.34667969 607.58528137 125.70837402 C607.58060984 116.1519967 607.56223177 106.59576475 607.53462219 97.03942871 C607.50284424 86.0240753 607.48830882 75.0088618 607.49527525 63.99346218 C607.49829354 58.35594247 607.49343544 52.71873569 607.46642435 47.08127308 C607.4421567 41.98553281 607.44084066 36.89032777 607.45799446 31.79456329 C607.46011858 29.95053396 607.45374344 28.10647153 607.43808711 26.26250744 C607.30046825 9.04492721 607.30046825 9.04492721 613.0625 2.5625 C616.27110529 0.95819736 619.5815457 1.08144682 623.0625 1.5625 C627.1459964 3.95933484 628.63178849 6.1318828 630.0625 10.5625 C630.31730902 13.43133777 630.31730902 13.43133777 630.32421303 16.65347195 C630.33167852 17.88531387 630.33914401 19.11715579 630.34683573 20.38632625 C630.34505878 21.75083212 630.34309786 23.11533777 630.3409729 24.47984314 C630.34597667 25.93254694 630.3518527 27.38524795 630.35852563 28.83794504 C630.37434596 32.83360571 630.37775764 36.82919609 630.37917423 40.8248843 C630.38286758 45.13802203 630.39802871 49.45112121 630.41178894 53.76423645 C630.43410929 61.25756868 630.44909846 68.7508872 630.45915604 76.24424553 C630.47382374 87.17200962 630.49940204 98.09972736 630.52748732 109.02746422 C630.57305875 126.88084577 630.60959043 144.7342342 630.640625 162.58764648 C630.67041885 179.71754281 630.70467937 196.84742029 630.74511719 213.97729492 C630.74757874 215.02059701 630.75004028 216.0638991 630.75257643 217.13881641 C630.76250313 221.33901718 630.77245708 225.53921789 630.78244839 229.7394185 C630.88570807 273.2030843 630.985416 316.66677931 631.04031456 360.13053685 C631.05229958 369.56158613 631.06647194 378.99262453 631.08464813 388.42366409 C631.10183671 397.36593551 631.1151746 406.30820395 631.12421691 415.25048744 C631.12907737 419.95298914 631.13554764 424.65547352 631.14648175 429.35796535 C631.22091971 462.48250139 631.22091971 462.48250139 630.74551392 474.60826111 C630.72331925 475.3643062 630.70112458 476.12035129 630.67825735 476.89930683 C630.3866725 482.54683333 628.74149702 486.55853582 625.125 490.875 C621.86514237 493.54215624 618.7394753 493.68709577 614.62510133 493.69656253 C613.73517696 493.70101191 612.84525259 493.7054613 611.92836082 493.71004552 C610.95287886 493.70988039 609.97739691 493.70971527 608.97235489 493.70954514 C607.93009809 493.71328614 606.8878413 493.71702715 605.81400096 493.72088152 C602.29252109 493.73228579 598.77106792 493.73656322 595.24957275 493.74090576 C592.71094392 493.74761576 590.17231618 493.75475328 587.63368964 493.76228356 C581.36979003 493.77970054 575.10589491 493.79244362 568.84198081 493.80322007 C561.34122178 493.81637026 553.84047986 493.83523529 546.33973366 493.85420035 C528.21003701 493.89975033 510.08032468 493.93518802 491.95060392 493.96950389 C483.37636582 493.9858037 474.80213042 494.00335464 466.22789512 494.02105594 C436.88500112 494.08160703 407.54210402 494.14003037 378.19919205 494.19121933 C376.35687331 494.19443852 374.51455457 494.19765789 372.67223583 494.20087744 C370.82543595 494.20410305 368.97863606 494.20732853 367.13183618 494.21055388 C363.42675796 494.2170253 359.72167976 494.22350142 356.01660156 494.22998047 C354.63863334 494.23238682 354.63863334 494.23238682 353.23282738 494.23484178 C323.43833458 494.28695585 293.64388623 494.35138751 263.84943484 494.42320609 C232.35858284 494.49906853 200.86772713 494.56402521 169.376827 494.61640286 C165.92117795 494.62219102 162.46552898 494.62802345 159.00988007 494.63388824 C157.7335371 494.63604662 157.7335371 494.63604662 156.43140943 494.63824861 C142.72744498 494.66167771 129.02352182 494.69503371 115.31958773 494.73191465 C101.55035673 494.76871824 87.78113989 494.79437845 74.01186684 494.80868712 C65.82841786 494.81751443 57.64508662 494.83472782 49.4616844 494.86391776 C43.35587389 494.88477036 37.25015736 494.88993094 31.14430687 494.88891616 C28.67053543 494.89096351 26.19676199 494.89813784 23.72302249 494.9108735 C20.36719179 494.92740505 17.01186288 494.92545626 13.65600967 494.91881943 C12.68989238 494.92801897 11.72377509 494.93721851 10.72838151 494.94669682 C3.49567469 494.90197403 -2.19513861 493.89642459 -7.875 489.0625 C-11.33366647 484.87017701 -11.0811913 481.02043129 -11.06892776 475.83871746 C-11.0709804 475.04014113 -11.07303303 474.24156479 -11.07514787 473.41878918 C-11.08084032 470.72023285 -11.07935786 468.0217272 -11.07794189 465.32316589 C-11.08052424 463.37794651 -11.08353703 461.43272766 -11.0869453 459.48750955 C-11.09503382 454.12432579 -11.09680589 448.7611554 -11.09754276 443.39796627 C-11.09939009 437.62075049 -11.10693577 431.84354171 -11.11367798 426.06632996 C-11.12727467 413.42601294 -11.13328801 400.78569908 -11.13768864 388.14537597 C-11.14044863 380.25744735 -11.14468552 372.36951996 -11.14919281 364.48159218 C-11.1613869 342.65556376 -11.17172154 320.82953649 -11.1750679 299.00350475 C-11.17528954 297.59178983 -11.17551132 296.1800749 -11.17573325 294.76835998 C-11.17595389 293.35321008 -11.17617438 291.93806019 -11.1763947 290.5229103 C-11.17683726 287.68381194 -11.17728437 284.84471359 -11.17773438 282.00561523 C-11.17784377 281.3016827 -11.17795316 280.59775016 -11.17806586 279.87248633 C-11.18169741 257.04160547 -11.19762101 234.21075635 -11.22092474 211.37988765 C-11.24550999 187.24944824 -11.25923339 163.11902711 -11.26043582 138.9885748 C-11.26135377 125.83158559 -11.26713614 112.67463793 -11.28525543 99.51766014 C-11.3006272 88.31603388 -11.30579418 77.11446201 -11.29751733 65.91282722 C-11.29360053 60.19469466 -11.29459053 54.47667174 -11.30857468 48.75855255 C-11.32125186 43.52714835 -11.32017074 38.29593685 -11.30798396 33.06453315 C-11.30601621 31.16883365 -11.30915478 29.27312079 -11.31782833 27.37744012 C-11.32885181 24.8059927 -11.32148192 22.2352337 -11.3094368 19.66380596 C-11.31703199 18.92317454 -11.32462718 18.18254311 -11.33245254 17.41946831 C-11.26984131 11.25248948 -9.4378706 7.42782561 -5.625 2.6875 C-2.9375 0.5625 -2.9375 0.5625 0 0 Z " fill="#863297" transform="translate(209.9375,360.4375)"/>
<path d="M0 0 C27.06 0 54.12 0 82 0 C81.67 0.66 81.34 1.32 81 2 C83.31 2.66 85.62 3.32 88 4 C88 4.66 88 5.32 88 6 C90.31 6 92.62 6 95 6 C95 6.66 95 7.32 95 8 C95.5775 8.12375 96.155 8.2475 96.75 8.375 C99.02335767 9.00648824 100.9253529 9.88858191 103 11 C102.67 11.66 102.34 12.32 102 13 C103.65 13 105.3 13 107 13 C107.33 13.66 107.66 14.32 108 15 C110.30965848 16.05352843 112.6429774 17.05719096 115 18 C115 18.66 115 19.32 115 20 C115.99 20 116.98 20 118 20 C118 20.99 118 21.98 118 23 C118.99 23 119.98 23 121 23 C121 23.66 121 24.32 121 25 C122.32 25 123.64 25 125 25 C125 25.66 125 26.32 125 27 C125.66 27 126.32 27 127 27 C127 27.99 127 28.98 127 30 C127.66 30 128.32 30 129 30 C129 30.66 129 31.32 129 32 C129.99 32 130.98 32 132 32 C132 32.99 132 33.98 132 35 C132.99 35 133.98 35 135 35 C135 35.66 135 36.32 135 37 C135.66 37 136.32 37 137 37 C137 37.66 137 38.32 137 39 C137.66 39 138.32 39 139 39 C139 39.99 139 40.98 139 42 C139.66 42 140.32 42 141 42 C142.625 43.375 142.625 43.375 144 45 C144 45.66 144 46.32 144 47 C144.66 47 145.32 47 146 47 C146.66 49.31 147.32 51.62 148 54 C148.66 54 149.32 54 150 54 C150.2475 54.5775 150.495 55.155 150.75 55.75 C151.92381027 58.13114342 151.92381027 58.13114342 154.125 60 C156 62 156 62 156 66 C156.66 66 157.32 66 158 66 C158 67.65 158 69.3 158 71 C159.32 70.67 160.64 70.34 162 70 C161.9175 70.86625 161.835 71.7325 161.75 72.625 C161.72101545 76.11908614 161.72101545 76.11908614 164 78.875 C166.62508067 82.97668854 166.32963946 85.22022781 166 90 C166.66 90 167.32 90 168 90 C168.33 93.3 168.66 96.6 169 100 C169.66 99.67 170.32 99.34 171 99 C171 117.81 171 136.62 171 156 C170.34 155.34 169.68 154.68 169 154 C168.67 157.63 168.34 161.26 168 165 C167.34 165 166.68 165 166 165 C166.07734375 166.30324219 166.07734375 166.30324219 166.15625 167.6328125 C165.98451117 171.33378426 165.11482625 173.5646062 163.5 176.875 C163.0359375 177.84179688 162.571875 178.80859375 162.09375 179.8046875 C161.55234375 180.89136719 161.55234375 180.89136719 161 182 C160.34 182 159.68 182 159 182 C158.67 184.31 158.34 186.62 158 189 C157.34 189 156.68 189 156 189 C156 189.99 156 190.98 156 192 C155.34 192 154.68 192 154 192 C154 193.32 154 194.64 154 196 C153.01 196 152.02 196 151 196 C151 196.99 151 197.98 151 199 C150.34 199 149.68 199 149 199 C148.67 200.65 148.34 202.3 148 204 C147.34 204 146.68 204 146 204 C145.938125 204.556875 145.87625 205.11375 145.8125 205.6875 C144.67221022 208.93294014 142.43703832 210.62388764 140 213 C139.67 213.99 139.34 214.98 139 216 C138.01 216 137.02 216 136 216 C135.71125 216.61875 135.4225 217.2375 135.125 217.875 C133.65429283 220.65300244 131.91479593 222.06650073 129.4375 224 C126.94690328 225.76637442 126.94690328 225.76637442 126 228 C125.34 228 124.68 228 124 228 C124 228.66 124 229.32 124 230 C123.01 230.33 122.02 230.66 121 231 C120.67 231.66 120.34 232.32 120 233 C119.01 233 118.02 233 117 233 C117 233.66 117 234.32 117 235 C115.68 235 114.36 235 113 235 C112.34 236.65 111.68 238.3 111 240 C109.35 240 107.7 240 106 240 C106 240.66 106 241.32 106 242 C104.35 242 102.7 242 101 242 C101 242.99 101 243.98 101 245 C99.35 245 97.7 245 96 245 C96 245.66 96 246.32 96 247 C93.01353231 248.99097846 90.40312738 249.94124926 87 251 C87 251.33 87 251.66 87 252 C84.03 252 81.06 252 78 252 C78 252.66 78 253.32 78 254 C74.92382812 254.29296875 74.92382812 254.29296875 71.84765625 254.5859375 C71.23792969 254.72257813 70.62820313 254.85921875 70 255 C69.67 255.66 69.34 256.32 69 257 C66.67284 257.37400786 64.33882138 257.70764733 62 258 C61.67 258.33 61.34 258.66 61 259 C57.98191937 259.101137 54.98719487 259.13968909 51.96875 259.1328125 C51.06249878 259.13376923 50.15624756 259.13472595 49.22253418 259.13571167 C47.30248953 259.13639353 45.38244259 259.13453882 43.46240234 259.13037109 C40.51264296 259.12502292 37.56303586 259.13031588 34.61328125 259.13671875 C32.75260383 259.13605797 30.8919265 259.13477681 29.03125 259.1328125 C27.69846008 259.13584885 27.69846008 259.13584885 26.33874512 259.13894653 C20.11494988 259.11494988 20.11494988 259.11494988 19 258 C17.845 257.855625 16.69 257.71125 15.5 257.5625 C14.345 257.376875 13.19 257.19125 12 257 C11.67 256.34 11.34 255.68 11 255 C8.67843403 254.59270772 6.3431213 254.25561323 4 254 C4 253.34 4 252.68 4 252 C1.03 252 -1.94 252 -5 252 C-5 251.34 -5 250.68 -5 250 C-6.11375 249.690625 -7.2275 249.38125 -8.375 249.0625 C-12 248 -12 248 -14 247 C-14 246.34 -14 245.68 -14 245 C-15.65 245 -17.3 245 -19 245 C-19.33 244.34 -19.66 243.68 -20 243 C-22.02463255 242.34786708 -22.02463255 242.34786708 -24 242 C-24 241.34 -24 240.68 -24 240 C-24.94875 240.061875 -25.8975 240.12375 -26.875 240.1875 C-27.90625 240.125625 -28.9375 240.06375 -30 240 C-30.66 239.01 -31.32 238.02 -32 237 C-31.67 236.34 -31.34 235.68 -31 235 C-32.32 235 -33.64 235 -35 235 C-35 234.34 -35 233.68 -35 233 C-36.32 232.67 -37.64 232.34 -39 232 C-39 231.34 -39 230.68 -39 230 C-39.99 230 -40.98 230 -42 230 C-42 229.34 -42 228.68 -42 228 C-42.66 228 -43.32 228 -44 228 C-45.625 226.625 -45.625 226.625 -47 225 C-47 224.34 -47 223.68 -47 223 C-47.99 223 -48.98 223 -50 223 C-50.66 221.35 -51.32 219.7 -52 218 C-52.66 218 -53.32 218 -54 218 C-54 217.34 -54 216.68 -54 216 C-54.99 216 -55.98 216 -57 216 C-57 215.01 -57 214.02 -57 213 C-57.66 213 -58.32 213 -59 213 C-59 212.34 -59 211.68 -59 211 C-59.66 211 -60.32 211 -61 211 C-61 210.01 -61 209.02 -61 208 C-61.99 207.67 -62.98 207.34 -64 207 C-64 206.01 -64 205.02 -64 204 C-64.66 204 -65.32 204 -66 204 C-66.268125 203.195625 -66.53625 202.39125 -66.8125 201.5625 C-67.204375 200.716875 -67.59625 199.87125 -68 199 C-68.99 198.67 -69.98 198.34 -71 198 C-71 196.68 -71 195.36 -71 194 C-71.66 194 -72.32 194 -73 194 C-73.33 192.35 -73.66 190.7 -74 189 C-74.66 189 -75.32 189 -76 189 C-76 187.68 -76 186.36 -76 185 C-76.66 185 -77.32 185 -78 185 C-78.29003906 183.93458984 -78.29003906 183.93458984 -78.5859375 182.84765625 C-78.84632813 181.92855469 -79.10671875 181.00945312 -79.375 180.0625 C-79.63023437 179.14597656 -79.88546875 178.22945312 -80.1484375 177.28515625 C-80.76660104 174.83254913 -80.76660104 174.83254913 -83 174 C-83 171.69 -83 169.38 -83 167 C-83.66 167 -84.32 167 -85 167 C-88.61601216 161.42531458 -88.30720059 156.39432346 -88 150 C-88.66 150 -89.32 150 -90 150 C-90 135.15 -90 120.3 -90 105 C-89.34 105 -88.68 105 -88 105 C-88.03480469 104.27554688 -88.06960938 103.55109375 -88.10546875 102.8046875 C-88.26631949 97.06001832 -88.23466184 92.98677034 -85 88 C-84.34 88 -83.68 88 -83 88 C-83 85.36 -83 82.72 -83 80 C-82.34 80 -81.68 80 -81 80 C-79.515 74.06 -79.515 74.06 -78 68 C-77.34 68 -76.68 68 -76 68 C-75.67 66.68 -75.34 65.36 -75 64 C-74.34 64 -73.68 64 -73 64 C-73 63.01 -73 62.02 -73 61 C-72.34 61 -71.68 61 -71 61 C-71 59.35 -71 57.7 -71 56 C-70.01 55.505 -70.01 55.505 -69 55 C-67.95191959 53.02477154 -66.9479589 51.02518491 -66 49 C-65.34 49 -64.68 49 -64 49 C-64 48.34 -64 47.68 -64 47 C-63.01 47 -62.02 47 -61 47 C-60.67 45.35 -60.34 43.7 -60 42 C-59.01 42 -58.02 42 -57 42 C-56.67 40.35 -56.34 38.7 -56 37 C-55.01 37 -54.02 37 -53 37 C-53 36.34 -53 35.68 -53 35 C-51.625 33.375 -51.625 33.375 -50 32 C-49.34 32 -48.68 32 -48 32 C-47.505 30.515 -47.505 30.515 -47 29 C-44.11284149 25.5781825 -41.05198054 23.84180933 -37 22 C-37 21.34 -37 20.68 -37 20 C-35.68 20 -34.36 20 -33 20 C-33 19.34 -33 18.68 -33 18 C-29.535 16.02 -29.535 16.02 -26 14 C-26 13.67 -26 13.34 -26 13 C-24.35 13 -22.7 13 -21 13 C-21.495 11.515 -21.495 11.515 -22 10 C-18.86501708 8.14223235 -16.62528568 7.79859524 -13 8 C-13 7.34 -13 6.68 -13 6 C-8.33333333 4.66666667 -3.66666667 3.33333333 1 2 C0.505 1.01 0.505 1.01 0 0 Z M26 47 C26 47.66 26 48.32 26 49 C25.30132812 48.97679687 24.60265625 48.95359375 23.8828125 48.9296875 C22.97273438 48.91164063 22.06265625 48.89359375 21.125 48.875 C20.22007812 48.85179687 19.31515625 48.82859375 18.3828125 48.8046875 C15.81193006 48.75675164 15.81193006 48.75675164 14 51 C11.375 51.625 11.375 51.625 9 52 C9 52.66 9 53.32 9 54 C8.195625 54.185625 8.195625 54.185625 7.375 54.375 C4.5361714 55.12206016 1.77776798 56.05303364 -1 57 C-1 57.66 -1 58.32 -1 59 C-2.32 59 -3.64 59 -5 59 C-5 59.99 -5 60.98 -5 62 C-5.99 62 -6.98 62 -8 62 C-8 62.66 -8 63.32 -8 64 C-8.66 64 -9.32 64 -10 64 C-10 64.66 -10 65.32 -10 66 C-11.32 66.33 -12.64 66.66 -14 67 C-14 67.66 -14 68.32 -14 69 C-14.99 69 -15.98 69 -17 69 C-17.33 70.32 -17.66 71.64 -18 73 C-18.66 73 -19.32 73 -20 73 C-20 73.99 -20 74.98 -20 76 C-20.99 76 -21.98 76 -23 76 C-23 76.66 -23 77.32 -23 78 C-23.66 78 -24.32 78 -25 78 C-25 79.65 -25 81.3 -25 83 C-25.66 83 -26.32 83 -27 83 C-27 83.99 -27 84.98 -27 86 C-27.66 86 -28.32 86 -29 86 C-31.43160605 89.36683915 -32 90.73350364 -32 95 C-32.66 95 -33.32 95 -34 95 C-34.33 97.31 -34.66 99.62 -35 102 C-35.66 102 -36.32 102 -37 102 C-37 105.96 -37 109.92 -37 114 C-37.66 114 -38.32 114 -39 114 C-39 122.91 -39 131.82 -39 141 C-38.67 141 -38.34 141 -38 141 C-37.96261719 141.61746094 -37.92523438 142.23492187 -37.88671875 142.87109375 C-37.27781572 150.71519749 -36.03003315 157.7627589 -31 164 C-29.59042988 166.63017613 -28.28714616 169.30810042 -27 172 C-26.34 172 -25.68 172 -25 172 C-25.061875 172.763125 -25.12375 173.52625 -25.1875 174.3125 C-25.24498309 177.0205342 -25.24498309 177.0205342 -23.625 178.8125 C-22.06631217 180.1966722 -22.06631217 180.1966722 -20 180 C-20 180.66 -20 181.32 -20 182 C-19.34 182 -18.68 182 -18 182 C-18 182.66 -18 183.32 -18 184 C-17.34 184.33 -16.68 184.66 -16 185 C-16 185.66 -16 186.32 -16 187 C-15.01 187 -14.02 187 -13 187 C-13 187.66 -13 188.32 -13 189 C-12.01 189 -11.02 189 -10 189 C-10 189.66 -10 190.32 -10 191 C-8.03501678 192.38442 -6.02951535 193.71203834 -4 195 C-3.360625 195.515625 -2.72125 196.03125 -2.0625 196.5625 C2.2627706 199.57708254 6.87991972 201.03133616 12 202 C15.78947368 203.57894737 15.78947368 203.57894737 17 206 C19.58605332 206.4683265 19.58605332 206.4683265 22.5625 206.625 C24.08037109 206.73714844 24.08037109 206.73714844 25.62890625 206.8515625 C26.80259766 206.92503906 26.80259766 206.92503906 28 207 C28 207.33 28 207.66 28 208 C36.25 208 44.5 208 53 208 C53 207.34 53 206.68 53 206 C56.96 206 60.92 206 65 206 C65 205.01 65 204.02 65 203 C68.6208201 201.98617037 72.27811418 201.50102309 76 201 C76 200.34 76 199.68 76 199 C77.65 198.67 79.3 198.34 81 198 C81 197.34 81 196.68 81 196 C82.65 196 84.3 196 86 196 C86 195.34 86 194.68 86 194 C86.66 194 87.32 194 88 194 C88 193.34 88 192.68 88 192 C88.598125 191.87625 89.19625 191.7525 89.8125 191.625 C92.26231348 191.04524015 92.26231348 191.04524015 95 189 C95 188.34 95 187.68 95 187 C95.99 186.67 96.98 186.34 98 186 C99.65899675 184.44152856 99.65899675 184.44152856 101.1875 182.5625 C101.71730469 181.94503906 102.24710938 181.32757813 102.79296875 180.69140625 C104.1936275 179.07499198 104.1936275 179.07499198 104 177 C104.66 177 105.32 177 106 177 C106.33 175.35 106.66 173.7 107 172 C107.66 172 108.32 172 109 172 C109.1546875 171.0409375 109.1546875 171.0409375 109.3125 170.0625 C109.6528125 169.0415625 109.6528125 169.0415625 110 168 C110.99 167.67 111.98 167.34 113 167 C115.22085338 163.02584132 115.17563129 159.4785979 115 155 C115.66 155 116.32 155 117 155 C118.62849969 150.64409432 119.34118446 146.76065388 119.625 142.125 C119.69976563 140.97257812 119.77453125 139.82015625 119.8515625 138.6328125 C119.90054688 137.76398438 119.94953125 136.89515625 120 136 C120.66 136 121.32 136 122 136 C122 129.73 122 123.46 122 117 C121.34 116.67 120.68 116.34 120 116 C119.5859375 113.49609375 119.5859375 113.49609375 119.375 110.4375 C119.26285156 108.91962891 119.26285156 108.91962891 119.1484375 107.37109375 C119.09945312 106.58863281 119.05046875 105.80617188 119 105 C118.34 105 117.68 105 117 105 C117.04125 104.319375 117.0825 103.63875 117.125 102.9375 C116.97450035 99.40075832 116.05624147 96.36676967 115 93 C114.34 93 113.68 93 113 93 C113 91.35 113 89.7 113 88 C112.34 88 111.68 88 111 88 C110.690625 87.21625 110.38125 86.4325 110.0625 85.625 C109.07124962 83.07669872 109.07124962 83.07669872 108 81 C107.34 81 106.68 81 106 81 C105.896875 80.4225 105.79375 79.845 105.6875 79.25 C104.89103535 76.64338842 103.80934723 75.0264689 102 73 C101.34 73 100.68 73 100 73 C100 72.34 100 71.68 100 71 C99.34 71 98.68 71 98 71 C98 70.34 98 69.68 98 69 C97.34 69 96.68 69 96 69 C95.67 68.01 95.34 67.02 95 66 C94.34 66 93.68 66 93 66 C93 65.34 93 64.68 93 64 C91.36021682 62.95650161 89.68535024 61.96817992 88 61 C86.87030242 60.15205597 85.74554051 59.29750852 84.625 58.4375 C81.19772635 55.93672011 78.12189832 54.92532411 74 54 C74 53.34 74 52.68 74 52 C73.030625 51.87625 72.06125 51.7525 71.0625 51.625 C70.051875 51.41875 69.04125 51.2125 68 51 C67.505 50.01 67.505 50.01 67 49 C64.44648887 48.56947737 64.44648887 48.56947737 61.5 48.4375 C56.09628611 48.09628611 56.09628611 48.09628611 55 47 C52.85441173 46.91224395 50.70595579 46.89304781 48.55859375 46.90234375 C47.25341797 46.90556641 45.94824219 46.90878906 44.60351562 46.91210938 C43.2148431 46.92046599 41.82617123 46.92893095 40.4375 46.9375 C39.04492344 46.94251334 37.65234519 46.94707653 36.25976562 46.95117188 C32.8398013 46.96300566 29.41992156 46.9794912 26 47 Z " fill="#793188" transform="translate(473,230)"/>
<path d="M0 0 C4.55516005 2.53567557 8.36058949 6.07805208 12.26953125 9.48999023 C16.35267236 13.02586401 20.57500515 15.89355385 25.1953125 18.69921875 C29.84929473 21.72847317 34.17272712 25.16475047 38.55615234 28.56884766 C43.64903826 32.50697093 48.83860999 36.2640775 54.125 39.9375 C59.91387765 43.96551479 65.40064729 48.16585511 70.80859375 52.6953125 C73.82238037 55.15456238 76.9721304 57.34224687 80.1796875 59.5390625 C84.46473234 62.53750355 88.66746869 65.64407542 92.875 68.75 C93.67486328 69.33998779 94.47472656 69.92997559 95.29882812 70.5378418 C99.73287886 73.8134922 104.14893845 77.11043185 108.53662109 80.44799805 C110.41455369 81.84919219 110.41455369 81.84919219 113.25 83.4375 C113.91 83.85 114.57 84.2625 115.25 84.6875 C115.25 85.3475 115.25 86.0075 115.25 86.6875 C116.27867187 87.02201172 116.27867187 87.02201172 117.328125 87.36328125 C121.02937462 89.04071925 123.86244766 91.32279914 127 93.875 C128.25773257 94.88030834 129.51554486 95.88551695 130.7734375 96.890625 C131.37639648 97.37595703 131.97935547 97.86128906 132.60058594 98.36132812 C137.91802027 102.63668385 143.34340679 106.76307788 148.81420898 110.83911133 C154.9836356 115.43712849 161.07700657 120.1018797 167.0625 124.9375 C172.9890227 129.72218035 179.04315949 134.27001892 185.25 138.6875 C191.01107915 142.82669177 196.70957358 147.02341725 202.3125 151.375 C207.69159474 155.54839294 213.16823425 159.57658173 218.6875 163.5625 C219.44490479 164.10994873 220.20230957 164.65739746 220.98266602 165.22143555 C224.20770024 167.54138529 227.42996685 169.81724801 230.78515625 171.9453125 C231.59855469 172.52023438 232.41195312 173.09515625 233.25 173.6875 C233.25 174.3475 233.25 175.0075 233.25 175.6875 C234.03310547 176.03554688 234.03310547 176.03554688 234.83203125 176.390625 C238.07020572 178.12741647 240.9747621 180.27741937 243.9375 182.4375 C247.95665285 185.34178294 251.97822957 188.21640806 256.125 190.9375 C259.06548333 192.8794327 261.96065788 194.86705267 264.8125 196.9375 C265.47378906 197.41703125 266.13507812 197.8965625 266.81640625 198.390625 C267.28949219 198.81859375 267.76257813 199.2465625 268.25 199.6875 C268.25 200.3475 268.25 201.0075 268.25 201.6875 C268.82234375 201.95820313 269.3946875 202.22890625 269.984375 202.5078125 C278.03562445 206.7000148 285.18054969 212.86201331 292.39941406 218.33105469 C296.76344216 221.62233748 301.18580241 224.73379626 305.84375 227.6015625 C306.3078125 227.95992187 306.771875 228.31828125 307.25 228.6875 C307.25 229.3475 307.25 230.0075 307.25 230.6875 C307.96285156 230.92726563 308.67570313 231.16703125 309.41015625 231.4140625 C312.6826117 232.88149094 314.96293669 234.73599346 317.6875 237.0625 C320.68933768 239.5897228 323.60992145 242.041302 326.9375 244.125 C327.700625 244.640625 328.46375 245.15625 329.25 245.6875 C329.25 246.3475 329.25 247.0075 329.25 247.6875 C329.83136719 247.95691406 330.41273438 248.22632813 331.01171875 248.50390625 C333.27063026 249.69840919 335.07565409 251.02219926 337.0625 252.625 C341.0582221 255.78637882 345.13040945 258.81638539 349.25 261.8125 C355.41346213 266.30581763 361.48977712 270.90220301 367.53637695 275.55126953 C374.13730271 280.62014522 380.79754262 285.60812045 387.4753418 290.57519531 C401.29038157 300.88647133 401.29038157 300.88647133 403.25 307.6875 C403.52927134 312.1304531 402.73268431 314.94011784 400.3125 318.6875 C396.65669365 321.07496537 394.43727845 321.71956723 390.1015625 321.4765625 C384.50918171 319.92908179 380.35692644 315.93955713 376.0390625 312.22314453 C372.94844594 309.57030909 369.78328889 307.00902644 366.625 304.4375 C365.96161621 303.89327393 365.29823242 303.34904785 364.61474609 302.78833008 C358.67428147 297.94683029 352.52058341 293.42994949 346.32446289 288.92333984 C340.43375991 284.61691743 334.75449932 280.1074335 329.1262207 275.46557617 C321.1147129 268.88234325 312.88188175 262.44208783 304.25 256.6875 C304.25 256.0275 304.25 255.3675 304.25 254.6875 C303.67121094 254.419375 303.09242188 254.15125 302.49609375 253.875 C300.2012441 252.66172297 298.33953922 251.30601884 296.3125 249.6875 C295.52359375 249.06488281 294.7346875 248.44226563 293.921875 247.80078125 C293.04015625 247.10339844 292.1584375 246.40601563 291.25 245.6875 C284.10690121 240.10578537 276.89197127 234.67425326 269.48828125 229.44262695 C264.87774655 226.17106837 260.39166068 222.75943893 255.92700195 219.29248047 C251.76267274 216.06403378 247.52381484 212.95612233 243.25 209.875 C239.61659444 207.22564178 236.02779173 204.51982822 232.4375 201.8125 C226.76706956 197.54073551 221.04201477 193.36116983 215.24755859 189.25952148 C211.63393002 186.69572227 208.08580623 184.06268159 204.5625 181.375 C197.73080958 176.21204907 190.65224799 171.41665809 183.5703125 166.60546875 C182.83200195 166.10321777 182.09369141 165.6009668 181.33300781 165.08349609 C180.01507304 164.20023883 178.68728469 163.33136386 177.34667969 162.48291016 C175.95055765 161.5975545 174.59451903 160.64941474 173.25 159.6875 C173.25 159.0275 173.25 158.3675 173.25 157.6875 C172.53199219 157.44386719 171.81398438 157.20023438 171.07421875 156.94921875 C167.886992 155.5253263 165.70886111 153.77110163 163.0625 151.5 C157.97543323 147.24042942 152.71794969 143.43562912 147.25 139.6875 C144.6999602 137.92842234 142.16045357 136.15502187 139.625 134.375 C138.6817688 133.72543335 138.6817688 133.72543335 137.71948242 133.06274414 C136.19312365 131.98774511 134.71623301 130.84316204 133.25 129.6875 C133.25 129.0275 133.25 128.3675 133.25 127.6875 C132.15558594 127.30851562 132.15558594 127.30851562 131.0390625 126.921875 C128.04199971 125.59544385 126.09802724 124.08025325 123.625 121.9375 C118.6018243 117.72451393 113.41953742 113.8030398 108.125 109.9375 C100.8414858 104.61731094 93.638928 99.20629068 86.50537109 93.68652344 C85.84230957 93.17508789 85.17924805 92.66365234 84.49609375 92.13671875 C83.62488892 91.46129028 83.62488892 91.46129028 82.73608398 90.7722168 C81.22324979 89.60491571 81.22324979 89.60491571 79.25 88.6875 C79.25 88.0275 79.25 87.3675 79.25 86.6875 C78.56808594 86.47222656 77.88617187 86.25695312 77.18359375 86.03515625 C73.36269634 84.27988381 70.51409566 81.81796212 67.3125 79.125 C61.61782109 74.42690765 55.7973872 70.25438163 49.46704102 66.45483398 C48.03138621 65.57977018 46.63566612 64.63974513 45.25 63.6875 C45.25 63.0275 45.25 62.3675 45.25 61.6875 C44.24839844 61.36845703 44.24839844 61.36845703 43.2265625 61.04296875 C39.24062298 59.22784931 36.06748644 56.68176572 32.625 54 C26.94820992 49.6405699 21.2596729 45.63733604 15.09375 41.9921875 C14.4853125 41.56164062 13.876875 41.13109375 13.25 40.6875 C13.25 40.0275 13.25 39.3675 13.25 38.6875 C12.56550781 38.4503125 11.88101562 38.213125 11.17578125 37.96875 C7.64465972 36.42241106 4.58445017 34.38369934 1.4375 32.1875 C0.5412793 31.58228516 0.5412793 31.58228516 -0.37304688 30.96484375 C-1.87143611 29.92710218 -3.31615614 28.81274203 -4.75 27.6875 C-4.75 27.0275 -4.75 26.3675 -4.75 25.6875 C-7.01863857 24.85296478 -7.01863857 24.85296478 -9.75 24.6875 C-12.11227395 26.09507039 -12.11227395 26.09507039 -14.375 28.3125 C-19.4499021 32.71947062 -24.74193242 36.55305826 -30.3125 40.3125 C-31.13693604 40.8691333 -31.96137207 41.4257666 -32.81079102 41.99926758 C-34.40595792 43.07521891 -36.00156195 44.15052252 -37.59765625 45.22509766 C-41.12459361 47.62146276 -44.58439035 50.10859528 -48.03515625 52.61328125 C-49.75 53.6875 -49.75 53.6875 -51.75 53.6875 C-51.75 54.3475 -51.75 55.0075 -51.75 55.6875 C-53.55859375 56.95703125 -53.55859375 56.95703125 -56.1875 58.5 C-61.39541735 61.71311096 -66.22810328 65.25105394 -71.0625 69 C-76.54998885 73.24457508 -82.05758259 77.44542306 -87.6875 81.5 C-88.27249268 81.92643799 -88.85748535 82.35287598 -89.46020508 82.79223633 C-93.5109041 85.6875 -93.5109041 85.6875 -95.75 85.6875 C-95.75 86.3475 -95.75 87.0075 -95.75 87.6875 C-97.2265625 88.84375 -97.2265625 88.84375 -99.375 90.1875 C-109.01823227 96.40942851 -118.23603875 103.2535921 -127.390625 110.16796875 C-130.67055969 112.63793178 -133.98119589 115.06513779 -137.29223633 117.49316406 C-145.89641354 123.80400487 -154.41282327 130.21891005 -162.88549805 136.70507812 C-169.62269176 141.85318716 -176.42321061 146.90890439 -183.27148438 151.90820312 C-187.90191495 155.29500866 -192.42848988 158.77960452 -196.89355469 162.38256836 C-198.75 163.6875 -198.75 163.6875 -200.75 163.6875 C-200.97816406 164.28046875 -201.20632813 164.8734375 -201.44140625 165.484375 C-203.11376131 168.29992203 -204.87627782 169.27577326 -207.6875 170.9375 C-213.61400279 174.56565735 -219.16842784 178.5540802 -224.75 182.6875 C-225.90432036 183.53210835 -227.05930029 184.3758158 -228.21484375 185.21875 C-238.46730675 192.7020809 -248.61937071 200.31637664 -258.7578125 207.953125 C-264.81157601 212.50609477 -270.89817782 217.01170747 -277 221.5 C-289.12139042 230.41917414 -301.17039185 239.42610233 -313.078125 248.62890625 C-313.95984375 249.30824219 -314.8415625 249.98757813 -315.75 250.6875 C-316.48734375 251.27402344 -317.2246875 251.86054688 -317.984375 252.46484375 C-319.75 253.6875 -319.75 253.6875 -321.75 253.6875 C-321.75 254.3475 -321.75 255.0075 -321.75 255.6875 C-323.92293039 257.44045225 -326.10127329 259.07410212 -328.375 260.6875 C-329.04998535 261.17444336 -329.7249707 261.66138672 -330.42041016 262.16308594 C-332.52505716 263.67866721 -334.63635082 265.18450436 -336.75 266.6875 C-337.39001953 267.14318359 -338.03003906 267.59886719 -338.68945312 268.06835938 C-339.91110298 268.93803019 -341.13278184 269.80766026 -342.35449219 270.67724609 C-343.23089355 271.30107178 -343.23089355 271.30107178 -344.125 271.9375 C-344.7118457 272.35467285 -345.29869141 272.7718457 -345.90332031 273.20166016 C-349.74941299 275.94497357 -353.50050617 278.77936322 -357.20703125 281.70703125 C-362.65388443 285.94905055 -368.20536171 290.05723178 -373.74267578 294.18017578 C-375.15528015 295.24091761 -376.55917091 296.31331375 -377.95654297 297.39404297 C-379.02799561 298.21799561 -379.02799561 298.21799561 -380.12109375 299.05859375 C-380.76876709 299.56189209 -381.41644043 300.06519043 -382.08374023 300.58374023 C-383.75 301.6875 -383.75 301.6875 -385.75 301.6875 C-385.75 302.3475 -385.75 303.0075 -385.75 303.6875 C-387.36382948 305.14409977 -389.04363216 306.52798951 -390.75 307.875 C-394.29788692 310.68336573 -397.64170548 313.52620191 -400.875 316.6875 C-404.3102764 319.72070093 -407.13071597 320.72897851 -411.703125 320.89453125 C-414.73154857 320.58822123 -416.47535341 319.68643186 -418.75 317.6875 C-421.48052259 313.22024926 -421.38798405 308.77522091 -420.75 303.6875 C-416.6654892 295.19171753 -408.04290924 290.48737613 -400.42358398 285.4921875 C-395.96128861 282.54907623 -391.78593403 279.41037381 -387.66015625 276.0078125 C-383.67012698 272.82650057 -379.55479692 269.82634048 -375.4375 266.8125 C-368.80328469 261.95213905 -362.23343734 257.02752883 -355.734375 251.98828125 C-352.69943382 249.64851639 -349.63566061 247.35177065 -346.5625 245.0625 C-343.01345309 242.40995712 -339.50974317 239.72091594 -336.0625 236.9375 C-324.99603466 228.02431819 -313.62082494 219.54654179 -302.06274414 211.28466797 C-297.98698667 208.35531452 -294.03394633 205.35461832 -290.1875 202.125 C-285.18156014 197.93433497 -279.91769572 194.20937739 -274.56787109 190.47802734 C-268.26991145 186.07925518 -262.08222556 181.54348197 -255.91040039 176.9699707 C-251.27566888 173.53901663 -246.61702567 170.14639462 -241.92749023 166.79077148 C-234.30652493 161.33607076 -226.86112884 155.7049667 -219.49316406 149.91357422 C-213.67678711 145.36047706 -207.73078566 141.0204984 -201.71972656 136.72924805 C-194.80579337 131.7743624 -188.05799181 126.61365608 -181.31005859 121.43603516 C-175.73782063 117.17113393 -170.10103247 113.02850669 -164.36230469 108.99145508 C-160.22461695 106.0673315 -156.29338575 102.94497986 -152.3671875 99.74609375 C-148.68948222 96.85333154 -144.87681945 94.16649841 -141.05810547 91.46435547 C-135.76999034 87.71854775 -130.58077455 83.85133549 -125.41162109 79.94287109 C-122.17485108 77.49745948 -118.93147897 75.06083649 -115.6875 72.625 C-115.00800293 72.11477295 -114.32850586 71.6045459 -113.62841797 71.07885742 C-108.77889374 67.44376268 -103.89811324 63.85655692 -98.984375 60.30859375 C-97.49327723 59.22676582 -96.02397445 58.11425321 -94.578125 56.97265625 C-92.75 55.6875 -92.75 55.6875 -90.75 55.6875 C-90.75 55.0275 -90.75 54.3675 -90.75 53.6875 C-88.9765625 52.41796875 -88.9765625 52.41796875 -86.375 50.875 C-80.84122582 47.46238567 -75.57193182 43.75825078 -70.3125 39.9375 C-69.53148926 39.3705542 -68.75047852 38.8036084 -67.94580078 38.21948242 C-63.74473491 35.16936706 -63.74473491 35.16936706 -59.62866211 32.00683594 C-57.75 30.6875 -57.75 30.6875 -55.75 30.6875 C-55.75 30.0275 -55.75 29.3675 -55.75 28.6875 C-54.29150391 27.48925781 -54.29150391 27.48925781 -52.2265625 26.140625 C-51.46110107 25.63192871 -50.69563965 25.12323242 -49.90698242 24.59912109 C-49.07142822 24.05078613 -48.23587402 23.50245117 -47.375 22.9375 C-39.54081149 17.70778022 -32.04733991 12.18315754 -24.71533203 6.27050781 C-16.62983723 -0.18516381 -10.19707822 -3.56897738 0 0 Z " fill="#753183" transform="translate(528.75,73.3125)"/>
<path d="M0 0 C0.77123199 -0.0049649 1.54246399 -0.00992981 2.33706665 -0.01504517 C4.88373716 -0.02962812 7.43034541 -0.03646193 9.97705078 -0.04199219 C11.75057985 -0.04774633 13.5241089 -0.05350403 15.29763794 -0.05926514 C19.01483448 -0.06976378 22.73200947 -0.07561404 26.44921875 -0.07910156 C31.20617423 -0.08458731 35.96284364 -0.10862181 40.7197094 -0.13707352 C44.38291247 -0.15571965 48.04604685 -0.16090652 51.70929337 -0.16243744 C53.46273489 -0.16545947 55.21617534 -0.1734728 56.96957016 -0.18662262 C59.42524609 -0.20372645 61.88022575 -0.20179262 64.3359375 -0.1953125 C65.05614075 -0.20452728 65.77634399 -0.21374207 66.51837158 -0.22323608 C72.16122285 -0.17672052 76.27669319 1.14046273 80.29736328 5.16113281 C80.55907631 7.53119087 80.55907631 7.53119087 80.57583618 10.56472778 C80.58699966 11.71180206 80.59816315 12.85887634 80.60966492 14.04071045 C80.6118251 15.30522034 80.61398529 16.56973022 80.61621094 17.87255859 C80.62550546 19.21274422 80.63567342 20.55292404 80.64665222 21.89309692 C80.67402015 25.537478 80.68912162 29.18182028 80.70208025 32.82627726 C80.7176812 36.63267387 80.74448102 40.4389909 80.77011108 44.24533081 C80.81695281 51.45592529 80.85367073 58.66653466 80.88678396 65.87720382 C80.92496733 74.08512375 80.97438734 82.29296387 81.02476811 90.50081658 C81.12816814 107.38753098 81.2174022 124.27429151 81.29736328 141.16113281 C77.96351525 140.42572516 75.87482517 139.46243807 73.29736328 137.16113281 C73.29736328 136.50113281 73.29736328 135.84113281 73.29736328 135.16113281 C70.69197329 134.10953994 68.11917437 133.10434623 65.44059753 132.25071716 C61.77611835 130.64763939 59.8221229 129.30076957 57.29736328 126.16113281 C55.1807253 118.7495878 56.02419825 110.56158248 56.22314453 102.94628906 C56.24367164 100.64704614 56.25932466 98.34775497 56.27030945 96.04844666 C56.3122266 90.00880102 56.4202016 83.97208504 56.54205322 77.93359375 C56.67459537 70.68207091 56.72491153 63.42956596 56.78903961 56.17717743 C56.89556375 45.16979435 57.10634446 34.16883336 57.29736328 23.16113281 C40.46736328 23.16113281 23.63736328 23.16113281 6.29736328 23.16113281 C6.62736328 29.10113281 6.95736328 35.04113281 7.29736328 41.16113281 C7.3686126 45.03617642 7.41744323 48.88984958 7.39501953 52.76269531 C7.39360458 53.73604828 7.39218964 54.70940125 7.39073181 55.71224976 C7.38525815 58.73691258 7.37273305 61.76149344 7.35986328 64.78613281 C7.35483184 66.87206922 7.35027188 68.95800683 7.34619141 71.04394531 C7.33533074 76.08303805 7.31815941 81.12207169 7.29736328 86.16113281 C3.21181291 85.44986425 0.83067626 84.39752049 -2.51513672 81.91113281 C-6.01288789 79.30401252 -6.01288789 79.30401252 -9.77441406 77.11694336 C-11.99634097 75.95297072 -13.84077053 74.84530147 -15.70263672 73.16113281 C-16.56491676 69.86358532 -16.78058848 67.79260344 -16.70263672 64.47363281 C-16.7098877 63.56532715 -16.71713867 62.65702148 -16.72460938 61.72119141 C-16.73668347 59.54543922 -16.73052981 57.36954947 -16.71142578 55.19384766 C-16.6867313 51.27353617 -16.76882827 47.35807246 -16.85491943 43.43882751 C-16.93413496 39.67161808 -16.9876882 35.90427856 -17.03662109 32.13656616 C-17.06383883 30.24503471 -17.09795432 28.35358922 -17.13916016 26.46231079 C-17.19333704 23.75997132 -17.21360758 21.05926066 -17.22607422 18.35644531 C-17.24866302 17.54875198 -17.27125183 16.74105865 -17.29452515 15.90888977 C-17.27362008 10.09693792 -15.81258917 5.43484339 -11.70263672 1.16113281 C-8.03823874 -0.37527032 -3.91621353 0.00604455 0 0 Z " fill="#71307E" transform="translate(725.70263671875,125.8388671875)"/>
<path d="M0 0 C1.32 0.66 2.64 1.32 4 2 C3.07929788 5.912984 1.48199129 7.57485141 -1.6875 9.8125 C-8.52852904 14.65308372 -13.29246031 21.28442348 -18.35546875 27.87890625 C-20.50170642 30.64709403 -22.73762491 33.32628399 -25 36 C-28.95820859 35.43454163 -31.6659053 34.19097652 -35 32 C-32.48800975 29.16333073 -29.67530815 27.5749766 -26.375 25.75 C-14.51513513 18.8590341 -7.70204329 11.18595819 0 0 Z " fill="#7B328A" transform="translate(580,388)"/>
<path d="M0 0 C28.38 0 56.76 0 86 0 C86 0.33 86 0.66 86 1 C57.62 1 29.24 1 0 1 C0 0.67 0 0.34 0 0 Z " fill="#853296" transform="translate(399,647)"/>
<path d="M0 0 C28.05 0 56.1 0 85 0 C85 0.33 85 0.66 85 1 C56.95 1 28.9 1 0 1 C0 0.67 0 0.34 0 0 Z " fill="#833294" transform="translate(543,647)"/>
<path d="M0 0 C0.66 0.33 1.32 0.66 2 1 C2.625 3.0625 2.625 3.0625 3 5 C2.34 5 1.68 5 1 5 C1.33 6.98 1.66 8.96 2 11 C1.01 10.67 0.02 10.34 -1 10 C-1.02689216 8.52093108 -1.04634621 7.04172517 -1.0625 5.5625 C-1.07410156 4.73878906 -1.08570313 3.91507812 -1.09765625 3.06640625 C-1 1 -1 1 0 0 Z " fill="#7B328A" transform="translate(472,378)"/>
<path d="M0 0 C0.33 1.32 0.66 2.64 1 4 C-0.32 3.67 -1.64 3.34 -3 3 C-2.01 2.01 -1.02 1.02 0 0 Z " fill="#833294" transform="translate(580,634)"/>
<path d="M0 0 C0.33 0.66 0.66 1.32 1 2 C0.34 1.67 -0.32 1.34 -1 1 C-0.67 0.67 -0.34 0.34 0 0 Z " fill="#7A3289" transform="translate(488,362)"/>
<path d="M0 0 C2 1 2 1 2 1 Z " fill="#833394" transform="translate(630,648)"/>
<path d="M0 0 C2 1 2 1 2 1 Z " fill="#863297" transform="translate(396,648)"/>
<path d="" fill="#833394" transform="translate(0,0)"/>
<path d="" fill="#863297" transform="translate(0,0)"/>
<path d="" fill="#803390" transform="translate(0,0)"/>
<path d="" fill="#7B328A" transform="translate(0,0)"/>
<path d="" fill="#7B328A" transform="translate(0,0)"/>
<path d="" fill="#7B328A" transform="translate(0,0)"/>
<path d="" fill="#7B328A" transform="translate(0,0)"/>
<path d="" fill="#7B328A" transform="translate(0,0)"/>
<path d="" fill="#7B328A" transform="translate(0,0)"/>
<path d="" fill="#7B328A" transform="translate(0,0)"/>
<path d="" fill="#7B328A" transform="translate(0,0)"/>
<path d="" fill="#7A3289" transform="translate(0,0)"/>
<path d="" fill="#7A3289" transform="translate(0,0)"/>
<path d="" fill="#7A3289" transform="translate(0,0)"/>
<path d="" fill="#7A3289" transform="translate(0,0)"/>
<path d="" fill="#763184" transform="translate(0,0)"/>
</svg>
